<?xml version="1.0" encoding="UTF-8"?>
<svg version="1.1" xmlns="http://www.w3.org/2000/svg" width="1712" height="1110">
<path d="M0 0 C564.96 0 1129.92 0 1712 0 C1712 366.3 1712 732.6 1712 1110 C1147.04 1110 582.08 1110 0 1110 C0 743.7 0 377.4 0 0 Z " fill="#FEFEFE" transform="translate(0,0)"/>
<path d="M0 0 C1.64162109 -0.02416992 1.64162109 -0.02416992 3.31640625 -0.04882812 C24.10511347 -0.06112914 42.47777018 8.9302694 57.125 23.3125 C57.82625 23.98925781 58.5275 24.66601562 59.25 25.36328125 C71.11677038 37.67042006 77.12771824 54.07829378 77.5625 71 C77.06694429 86.74215313 72.01973941 102.01418017 62.125 114.3125 C61.46757813 115.14523438 60.81015625 115.97796875 60.1328125 116.8359375 C51.9891413 126.53078416 41.61375133 133.15163879 30.125 138.3125 C30.70882373 143.5986875 31.57644425 148.60553125 32.88061523 153.77319336 C33.14524992 154.83023279 33.14524992 154.83023279 33.41523075 155.90862656 C34.00027676 158.24099901 34.59196411 160.57163342 35.18359375 162.90234375 C35.60441559 164.57522908 36.02477357 166.24823116 36.44470215 167.92134094 C37.34335037 171.49847017 38.24476418 175.07488608 39.14840698 178.65075684 C41.30217132 187.17451336 43.44158251 195.70187756 45.58233833 204.22890854 C46.31622951 207.15157123 47.05066961 210.07409562 47.78514099 212.99661255 C52.60179898 232.17108707 57.34137598 251.36431395 62.0625 270.5625 C62.43398925 272.07298818 62.80547971 273.58347606 63.17697144 275.09396362 C63.71542146 277.28334541 64.2538673 279.47272822 64.79228497 281.66211796 C66.27026887 287.6715917 67.75006441 293.68061686 69.23162842 299.68920898 C69.8120896 302.04341392 70.3920727 304.39773681 70.97149658 306.75219727 C73.37117388 316.49262752 75.77474124 326.2231368 78.51171875 335.875 C81.92226671 347.90835066 84.88739577 360.06029025 87.91088867 372.1953125 C88.77623876 375.66829223 89.64593062 379.14016868 90.51678944 382.61177063 C91.19189531 385.3049926 91.86477398 387.99876707 92.53696251 390.69271851 C93.01212627 392.59534928 93.48917967 394.49750781 93.96626282 396.3996582 C94.39252205 398.11415161 94.39252205 398.11415161 94.82739258 399.86328125 C95.07878494 400.87044189 95.33017731 401.87760254 95.58918762 402.9152832 C96.125 405.3125 96.125 405.3125 96.125 407.3125 C98.435 406.6525 100.745 405.9925 103.125 405.3125 C102.980625 406.13234375 102.83625 406.9521875 102.6875 407.796875 C102.501875 408.87453125 102.31625 409.9521875 102.125 411.0625 C101.939375 412.12984375 101.75375 413.1971875 101.5625 414.296875 C101.02928357 417.46439374 101.02928357 417.46439374 101.125 421.3125 C101.98158203 420.4771875 101.98158203 420.4771875 102.85546875 419.625 C118.88625956 404.53719688 137.14907248 396.89490208 159.0625 397.0625 C160.57360352 397.05089844 160.57360352 397.05089844 162.11523438 397.0390625 C182.86362332 397.09243456 200.81111379 404.93100763 215.97265625 419.078125 C230.59346319 434.25616778 236.67104848 451.72876103 236.30859375 472.64453125 C235.32869617 492.22163406 226.49898897 508.26932925 212.3203125 521.5546875 C194.59932007 537.32474498 172.72447508 541.46793017 149.73095703 540.49902344 C130.76562367 539.14156469 113.47439738 528.35923216 100.75390625 514.81640625 C99.24958731 513.08638224 99.24958731 513.08638224 97.125 513.3125 C95.68425285 515.094629 94.31989351 516.93910276 93 518.8125 C92.27554687 519.8334375 91.55109375 520.854375 90.8046875 521.90625 C90.25039062 522.7003125 89.69609375 523.494375 89.125 524.3125 C86.125 520.5625 86.125 520.5625 86.125 518.3125 C79.35064571 521.68680236 72.57798717 525.06449103 65.80639648 528.44433594 C63.51152129 529.58928799 61.21628497 530.73351656 58.9206543 531.87695312 C47.13557554 537.7476063 35.37806892 543.65171854 23.74760437 549.82382202 C16.64100509 553.58917517 9.45676216 557.18828704 2.25073242 560.75878906 C-12.13731923 567.88871807 -12.13731923 567.88871807 -26.375 575.3125 C-35.86769041 580.38832883 -45.51597935 585.14956094 -55.15179443 589.94577026 C-64.02271379 594.36303662 -72.85713264 598.82471521 -81.59765625 603.49609375 C-89.98622045 607.9520512 -98.50757933 612.14407409 -107.01086426 616.37530518 C-114.80128829 620.25349482 -122.57434056 624.14773881 -130.25 628.25 C-139.03789301 632.94557178 -147.95599678 637.37308247 -156.875 641.8125 C-170.19094415 648.43371028 -170.19094415 648.43371028 -183.375 655.3125 C-192.8683525 660.38868286 -202.51732927 665.15021821 -212.15380859 669.94677734 C-220.27115883 673.98882213 -228.37764075 678.03623849 -236.375 682.3125 C-245.86769041 687.38832883 -255.51597935 692.14956094 -265.15179443 696.94577026 C-274.02271379 701.36303662 -282.85713264 705.82471521 -291.59765625 710.49609375 C-299.98622045 714.9520512 -308.50757933 719.14407409 -317.01086426 723.37530518 C-324.80128829 727.25349482 -332.57434056 731.14773881 -340.25 735.25 C-349.03789301 739.94557178 -357.95599678 744.37308247 -366.875 748.8125 C-380.19094415 755.43371028 -380.19094415 755.43371028 -393.375 762.3125 C-402.8683525 767.38868286 -412.51732927 772.15021821 -422.15380859 776.94677734 C-430.27115883 780.98882213 -438.37764075 785.03623849 -446.375 789.3125 C-455.85775888 794.38301835 -465.49572916 799.13970491 -475.12158203 803.93066406 C-486.45525949 809.57388578 -497.70922453 815.34267945 -508.875 821.3125 C-509.535 821.6425 -510.195 821.9725 -510.875 822.3125 C-510.89481934 822.93181396 -510.91463867 823.55112793 -510.93505859 824.18920898 C-511.03135231 827.04317389 -511.14060097 829.89650857 -511.25 832.75 C-511.2809375 833.72388672 -511.311875 834.69777344 -511.34375 835.70117188 C-512.14424042 855.6467249 -520.31004731 873.55068181 -534.875 887.3125 C-541.7665308 893.27481035 -549.16252586 897.79463448 -557.5625 901.3125 C-558.22636719 901.5911792 -558.89023437 901.8698584 -559.57421875 902.15698242 C-577.41937309 909.12121075 -600.35133794 909.07441104 -617.85351562 901.45068359 C-626.2441433 897.69831685 -634.03817123 893.53866057 -640.875 887.3125 C-641.63167969 886.63574219 -642.38835938 885.95898438 -643.16796875 885.26171875 C-652.17098529 876.77143682 -657.68813265 866.87622888 -661.875 855.3125 C-662.19597656 854.46429687 -662.51695312 853.61609375 -662.84765625 852.7421875 C-668.00691063 837.04845558 -665.30782797 819.13462406 -658.2890625 804.46777344 C-654.07621047 796.24849913 -648.4154795 789.76881892 -641.875 783.3125 C-643.95358979 781.13157964 -646.09356618 779.34859531 -648.5625 777.625 C-649.18511719 777.18800781 -649.80773437 776.75101563 -650.44921875 776.30078125 C-650.91972656 775.97464844 -651.39023437 775.64851562 -651.875 775.3125 C-650.555 773.9925 -649.235 772.6725 -647.875 771.3125 C-649.15525917 767.93127403 -650.6148166 764.85904545 -652.45703125 761.75 C-652.96999756 760.88189697 -653.48296387 760.01379395 -654.01147461 759.11938477 C-654.56456299 758.19311279 -655.11765137 757.26684082 -655.6875 756.3125 C-656.2657251 755.33917725 -656.8439502 754.36585449 -657.43969727 753.36303711 C-662.388439 745.06285169 -667.46411527 736.84451079 -672.5703125 728.640625 C-675.97947971 723.15763203 -679.33701951 717.64399379 -682.6875 712.125 C-687.65805641 703.93999348 -692.66128204 695.77593921 -697.6875 687.625 C-703.28664869 678.5427507 -708.8458607 669.43743898 -714.375 660.3125 C-720.09319907 650.87612962 -725.84006046 641.45811909 -731.625 632.0625 C-732.28048828 630.99773438 -732.93597656 629.93296875 -733.61132812 628.8359375 C-737.01340241 623.31599216 -740.43133313 617.80659448 -743.875 612.3125 C-744.38579102 612.70107178 -744.89658203 613.08964355 -745.42285156 613.48999023 C-746.77132957 614.51215962 -748.12614464 615.5259816 -749.484375 616.53515625 C-751.04635924 617.69643538 -752.59897143 618.87045729 -754.140625 620.05859375 C-772.03581621 633.36147595 -793.46980776 636.60808606 -815.21533203 634.03564453 C-835.03905102 630.83534183 -852.76816505 619.12611899 -864.875 603.3125 C-864.875 602.6525 -864.875 601.9925 -864.875 601.3125 C-865.535 601.3125 -866.195 601.3125 -866.875 601.3125 C-867.13023437 602.01761719 -867.38546875 602.72273437 -867.6484375 603.44921875 C-868.99050522 606.5821348 -870.64229867 609.26964425 -872.5 612.125 C-873.13164063 613.10082031 -873.76328125 614.07664062 -874.4140625 615.08203125 C-875.13722656 616.18611328 -875.13722656 616.18611328 -875.875 617.3125 C-877.54166667 615.64583333 -879.20833333 613.97916667 -880.875 612.3125 C-894.26053056 620.189657 -907.62283132 628.08911144 -920.80517578 636.30322266 C-928.15209451 640.87771922 -935.53817817 645.38599483 -942.9375 649.875 C-943.54020721 650.24068085 -944.14291443 650.60636169 -944.7638855 650.98312378 C-952.90684071 655.921881 -961.06500671 660.83479286 -969.23657227 665.72607422 C-979.93641512 672.13669543 -990.58767138 678.62778535 -1001.24609375 685.10693359 C-1006.54045717 688.32509345 -1011.83681075 691.53997493 -1017.13305664 694.7550354 C-1020.04712325 696.52404945 -1022.96105463 698.29328624 -1025.875 700.0625 C-1027.04166602 700.7708344 -1028.20833269 701.47916773 -1029.375 702.1875 C-1029.9525 702.538125 -1030.53 702.88875 -1031.125 703.25 C-1060.875 721.3125 -1090.625 739.375 -1120.375 757.4375 C-1120.95237915 757.7880545 -1121.5297583 758.13860901 -1122.12463379 758.49978638 C-1123.29251085 759.20884877 -1124.46039823 759.91789415 -1125.6282959 760.62692261 C-1128.52652809 762.38646265 -1131.42458618 764.14628809 -1134.32226562 765.90673828 C-1139.79188473 769.22931828 -1145.263309 772.54882492 -1150.74047852 775.85894775 C-1153.32925725 777.42370045 -1155.91710569 778.98998804 -1158.50488281 780.55639648 C-1159.73944405 781.30309651 -1160.97446132 782.04904313 -1162.20996094 782.79418945 C-1163.92237485 783.82703307 -1165.63309921 784.86267633 -1167.34375 785.8984375 C-1168.31763672 786.4867334 -1169.29152344 787.0750293 -1170.29492188 787.68115234 C-1172.58371943 789.12832733 -1174.7387029 790.65100565 -1176.875 792.3125 C-1176.42769531 792.97894531 -1175.98039062 793.64539063 -1175.51953125 794.33203125 C-1163.89026599 812.06108169 -1160.97530883 827.95195596 -1163.26953125 848.91796875 C-1167.43082518 868.38208551 -1180.54977142 884.70310313 -1196.875 895.4375 C-1214.75731595 906.10377551 -1236.55694978 909.39000898 -1257.0625 905.69921875 C-1269.53810303 902.42148508 -1282.31981834 896.01420913 -1291.875 887.3125 C-1292.63167969 886.63574219 -1293.38835937 885.95898438 -1294.16796875 885.26171875 C-1307.87316605 872.33705195 -1315.48174477 854.96842065 -1316.20751953 836.25073242 C-1316.56672561 817.74749081 -1309.85410968 800.71271784 -1297.07275391 787.38696289 C-1283.90560061 774.20405403 -1268.36593535 765.90486322 -1249.875 763.3125 C-1249.7205542 762.21977783 -1249.5661084 761.12705566 -1249.40698242 760.0012207 C-1245.67271589 733.66703714 -1241.65755844 707.38495118 -1237.4375 681.125 C-1234.13545432 660.57578612 -1230.88273336 640.02297175 -1227.8125 619.4375 C-1224.96239696 600.33649777 -1221.9839419 581.25808062 -1218.9375 562.1875 C-1215.67132661 541.74076394 -1212.47505138 521.28525232 -1209.375 500.8125 C-1206.13956614 479.4491546 -1202.79470241 458.10534542 -1199.38357544 436.76937866 C-1196.81258337 420.67721147 -1194.28889139 404.57876368 -1191.83203125 388.46875 C-1191.70530785 387.63791586 -1191.57858444 386.80708172 -1191.44802094 385.95107079 C-1190.20049817 377.76832286 -1188.95707226 369.58496139 -1187.71958256 361.40069008 C-1187.26388892 358.3886729 -1186.80683466 355.37686303 -1186.34958458 352.36508179 C-1186.03495695 350.28852862 -1185.72249285 348.21165754 -1185.41011047 346.13476562 C-1185.22184189 344.8944458 -1185.0335733 343.65412598 -1184.83959961 342.3762207 C-1184.59505287 340.75596733 -1184.59505287 340.75596733 -1184.3455658 339.10298157 C-1183.95637974 336.7950864 -1183.48721911 334.56946973 -1182.875 332.3125 C-1185.185 331.9825 -1187.495 331.6525 -1189.875 331.3125 C-1182.57659453 319.79085991 -1182.57659453 319.79085991 -1178.875 314.3125 C-1180.669375 313.8484375 -1180.669375 313.8484375 -1182.5 313.375 C-1199.87658432 307.54631896 -1214.26437041 293.30296414 -1222.44140625 277.234375 C-1223.73102458 274.29327528 -1224.84143517 271.35239657 -1225.875 268.3125 C-1226.19339844 267.42820312 -1226.51179688 266.54390625 -1226.83984375 265.6328125 C-1232.2651833 247.98170779 -1229.29520142 229.6806503 -1221.125 213.5 C-1211.34881148 196.90784289 -1196.04927804 184.29577601 -1177.625 178.4375 C-1176.04751217 178.03862461 -1174.4639445 177.66296371 -1172.875 177.3125 C-1172.08738281 177.11011719 -1171.29976562 176.90773438 -1170.48828125 176.69921875 C-1149.18268118 171.90301169 -1127.00503808 175.98049164 -1108.625 187.5 C-1092.88059814 197.84581798 -1081.97021111 213.18222903 -1077.0625 231.375 C-1074.03120401 246.18104109 -1075.03331049 261.62912098 -1081.875 275.3125 C-901.365 275.6425 -720.855 275.9725 -534.875 276.3125 C-534.875 274.0025 -534.875 271.6925 -534.875 269.3125 C-528.95530998 271.07240784 -523.45865008 273.70944605 -517.875 276.3125 C-517.9575 275.095625 -518.04 273.87875 -518.125 272.625 C-518.0479511 256.21358433 -507.88294915 240.59497713 -496.82421875 229.19921875 C-479.58937777 212.97263172 -459.54979265 207.67761734 -436.578125 208.07421875 C-415.32879746 208.78416172 -396.93007024 218.45245924 -382.21484375 233.609375 C-372.875 244.39931135 -372.875 244.39931135 -372.875 249.3125 C-340.38442421 231.94202704 -340.38442421 231.94202704 -308 214.375 C-299.7311458 209.8529467 -291.43508664 205.38328846 -283.125 200.9375 C-282.24122681 200.4646759 -282.24122681 200.4646759 -281.33959961 199.9822998 C-278.95540846 198.70681129 -276.57119507 197.43136435 -274.18695068 196.15597534 C-260.09534932 188.61639237 -246.02159292 181.04406306 -232 173.375 C-223.7311458 168.8529467 -215.43508664 164.38328846 -207.125 159.9375 C-206.24122681 159.4646759 -206.24122681 159.4646759 -205.33959961 158.9822998 C-202.95540846 157.70681129 -200.57119507 156.43136435 -198.18695068 155.15597534 C-184.09535057 147.61639304 -170.02154126 140.04415555 -156 132.375 C-147.69056141 127.83010897 -139.35178384 123.34146603 -131 118.875 C-121.80266922 113.95564434 -112.61182002 109.02469753 -103.4375 104.0625 C-102.44314941 103.52568604 -101.44879883 102.98887207 -100.42431641 102.43579102 C-99.50183105 101.93619873 -98.5793457 101.43660645 -97.62890625 100.921875 C-96.82783447 100.48842773 -96.0267627 100.05498047 -95.20141602 99.60839844 C-93.50990938 98.66616764 -91.84673148 97.67252145 -90.20288086 96.64941406 C-87.875 95.3125 -87.875 95.3125 -85.875 95.3125 C-86.865 93.0025 -87.855 90.6925 -88.875 88.3125 C-84.255 88.3125 -79.635 88.3125 -74.875 88.3125 C-75.205 86.6625 -75.535 85.0125 -75.875 83.3125 C-77.39357565 62.64833764 -74.98929632 45.25042836 -61.70703125 28.59375 C-59.50537232 26.07756837 -57.23677822 23.6784072 -54.875 21.3125 C-54.26140625 20.68730469 -53.6478125 20.06210938 -53.015625 19.41796875 C-38.44399616 5.62473888 -19.62486639 -0.05738265 0 0 Z " fill="#0F0F0F" transform="translate(1385.875,93.6875)"/>
<path d="M0 0 C0.07476563 1.05316406 0.14953125 2.10632813 0.2265625 3.19140625 C1.02928756 12.52785018 2.83685355 20.26542262 6.66015625 28.828125 C8 32 8 32 9 37 C2.07 38.485 2.07 38.485 -5 40 C-4.01 41.32 -3.02 42.64 -2 44 C-2 44.66 -2 45.32 -2 46 C-3.36669922 47.21411133 -3.36669922 47.21411133 -5.3046875 48.58203125 C-6.02398438 49.09507812 -6.74328125 49.608125 -7.484375 50.13671875 C-8.27328125 50.68972656 -9.0621875 51.24273437 -9.875 51.8125 C-11.5391855 52.9959208 -13.20324458 54.17951939 -14.8671875 55.36328125 C-16.15061035 56.27134521 -16.15061035 56.27134521 -17.45996094 57.19775391 C-21.32486408 59.94003717 -25.16189377 62.72040396 -29 65.5 C-30.49984519 66.58354765 -31.99984579 67.66688022 -33.5 68.75 C-34.2425 69.28625 -34.985 69.8225 -35.75 70.375 C-42.5 75.25 -42.5 75.25 -44.74975586 76.87475586 C-46.2506555 77.95878416 -47.75146922 79.04293142 -49.25219727 80.12719727 C-52.98773967 82.82587655 -56.72472254 85.52251312 -60.46484375 88.21484375 C-68.17462973 93.76804624 -75.85757631 99.35437205 -83.5 105 C-91.87948458 111.19011119 -100.31107363 117.30474309 -108.76611328 123.39111328 C-112.51359784 126.09012128 -116.25655845 128.79538884 -120 131.5 C-121.49997854 132.58336304 -122.99997854 133.66669638 -124.5 134.75 C-125.2425 135.28625 -125.985 135.8225 -126.75 136.375 C-133.5 141.25 -133.5 141.25 -135.74975586 142.87475586 C-137.2506555 143.95878416 -138.75146922 145.04293142 -140.25219727 146.12719727 C-143.98773967 148.82587655 -147.72472254 151.52251312 -151.46484375 154.21484375 C-159.25915847 159.82903178 -167.024536 165.47885383 -174.75 171.1875 C-181.26722873 176.00286929 -187.82113315 180.75864473 -194.42578125 185.453125 C-198.54889631 188.38542774 -202.64960633 191.34854503 -206.75 194.3125 C-207.50224854 194.85608154 -208.25449707 195.39966309 -209.02954102 195.9597168 C-213.74400537 199.36725051 -218.45680642 202.77707664 -223.16723633 206.19018555 C-224.70570744 207.30133041 -226.2471567 208.40836498 -227.79174805 209.51098633 C-230.94553336 211.76428892 -234.0303695 214.02478026 -237.03515625 216.4765625 C-242.76537518 221.06428029 -242.76537518 221.06428029 -246.17578125 220.88671875 C-248.58139976 220.12187734 -250.73022778 219.10371799 -253 218 C-255.01034643 217.26242919 -257.03203099 216.55521986 -259.0625 215.875 C-260.00222656 215.54242187 -260.94195313 215.20984375 -261.91015625 214.8671875 C-281.69673679 209.31393733 -303.67680503 212.48365566 -321.57421875 221.94921875 C-339.06867222 232.42195315 -351.05013994 247.07075235 -357.1640625 266.74609375 C-361.03914672 283.49918653 -358.23793299 302.24684942 -349.953125 317.14453125 C-349 319 -349 319 -349 321 C-358.405 321.495 -358.405 321.495 -368 322 C-367.01 323.65 -366.02 325.3 -365 327 C-365.70016646 329.6803152 -366.6140296 330.70495381 -368.80224609 332.37768555 C-369.90173584 333.00090698 -369.90173584 333.00090698 -371.0234375 333.63671875 C-371.86471191 334.12237305 -372.70598633 334.60802734 -373.57275391 335.10839844 C-374.95986572 335.89005371 -374.95986572 335.89005371 -376.375 336.6875 C-378.3916708 337.85105389 -380.40724457 339.01651063 -382.421875 340.18359375 C-383.49373047 340.80218262 -384.56558594 341.42077148 -385.66992188 342.05810547 C-391.36701637 345.38029679 -396.99443467 348.81683125 -402.625 352.25 C-403.81291098 352.97302741 -405.00089986 353.69592685 -406.18896484 354.41870117 C-408.5940984 355.88207836 -410.99884398 357.34609007 -413.40332031 358.81054688 C-418.68430277 362.02623884 -423.97032324 365.23363077 -429.25604248 368.44152832 C-432.17090848 370.21066724 -435.08543687 371.98036217 -438 373.75 C-439.16666506 374.45833599 -440.33333172 375.16666932 -441.5 375.875 C-442.0775 376.225625 -442.655 376.57625 -443.25 376.9375 C-560.49999993 448.12499996 -560.49999993 448.12499996 -562.24987793 449.18742371 C-563.41695408 449.89600711 -564.58402764 450.60459475 -565.75109863 451.31318665 C-568.66147916 453.08022876 -571.57190397 454.84719784 -574.48242188 456.61401367 C-579.80749795 459.84667585 -585.13219733 463.07995207 -590.45532227 466.31582642 C-615.77531065 481.707478 -615.77531065 481.707478 -625.31054688 487.37280273 C-629.70307784 489.99000406 -634.06068685 492.65511487 -638.38867188 495.37738037 C-640.95095743 496.98701921 -643.52067895 498.5845837 -646.09082031 500.18164062 C-647.35686163 500.9729974 -648.61929808 501.77015275 -649.87792969 502.57324219 C-651.63905149 503.69634437 -653.41149168 504.79907815 -655.1875 505.8984375 C-656.21230469 506.54474121 -657.23710938 507.19104492 -658.29296875 507.85693359 C-661 509 -661 509 -663.22143555 508.31152344 C-665.52768609 506.61088131 -667.66291583 504.77033227 -669.8125 502.875 C-684.42250411 490.79402457 -701.11424344 485.4214063 -719.9375 484.4375 C-720.71673828 484.39431641 -721.49597656 484.35113281 -722.29882812 484.30664062 C-724.19907117 484.20171923 -726.09951669 484.1004755 -728 484 C-726.47846338 473.15500491 -724.9214696 462.31910968 -723.19384766 451.50488281 C-722.12608164 444.81938238 -721.08979878 438.12933417 -720.0625 431.4375 C-719.89443848 430.3434082 -719.72637695 429.24931641 -719.55322266 428.12207031 C-719.03517124 424.74809444 -718.51751736 421.37405782 -718 418 C-714.11045718 392.64134838 -714.11045718 392.64134838 -712.14428711 380.26000977 C-711.07477796 373.50994697 -710.03627041 366.75523642 -709 360 C-707.7345337 351.75068211 -706.45355114 343.50422862 -705.14453125 335.26171875 C-704.07500855 328.51107549 -703.03635768 321.75580536 -702 315 C-700.7345337 306.75068211 -699.45355114 298.50422862 -698.14453125 290.26171875 C-697.07500855 283.51107549 -696.03635768 276.75580536 -695 270 C-693.7345337 261.75068211 -692.45355114 253.50422862 -691.14453125 245.26171875 C-690.07500855 238.51107549 -689.03635768 231.75580536 -688 225 C-686.73407869 216.747716 -685.454694 208.49795466 -684.14233398 200.25292969 C-683.43416936 195.79078203 -682.74332882 191.32637673 -682.06640625 186.859375 C-680.50813049 176.59209471 -678.90811513 166.34480467 -677.0625 156.125 C-675.37098601 146.6777583 -674.03177106 137.19663827 -672.75 127.6875 C-670.64617615 112.08763005 -668.24273077 96.54222929 -665.75 81 C-665.48213684 79.32434464 -665.48213684 79.32434464 -665.2088623 77.61483765 C-664.69901994 74.43031858 -664.18619669 71.2462984 -663.671875 68.0625 C-663.4409314 66.62430656 -663.4409314 66.62430656 -663.20532227 65.15705872 C-663.06118896 64.2712059 -662.91705566 63.38535309 -662.76855469 62.47265625 C-662.64373718 61.70187744 -662.51891968 60.93109863 -662.39031982 60.13696289 C-662.0114825 58.06286557 -661.53556628 56.03869578 -661 54 C-658.69 54 -656.38 54 -654 54 C-654.3609375 52.86820312 -654.721875 51.73640625 -655.09375 50.5703125 C-655.56264982 49.08858907 -656.03139164 47.60681563 -656.5 46.125 C-656.85771484 45.00544922 -656.85771484 45.00544922 -657.22265625 43.86328125 C-659 38.2265625 -659 38.2265625 -659 36 C-658.40058594 36.144375 -657.80117188 36.28875 -657.18359375 36.4375 C-638.10915175 40.34464032 -618.29331513 39.11889588 -600.5234375 31.0859375 C-599.27433594 30.54839844 -599.27433594 30.54839844 -598 30 C-597.01580078 29.52820313 -597.01580078 29.52820313 -596.01171875 29.046875 C-594 29 -594 29 -591.37109375 30.9921875 C-590.38226623 31.94184016 -589.40505131 32.903679 -588.4375 33.875 C-587.36565818 34.90612234 -586.29139277 35.9347307 -585.21484375 36.9609375 C-584.67585449 37.4775293 -584.13686523 37.99412109 -583.58154297 38.52636719 C-581.31510838 40.63816083 -578.92030486 42.56797145 -576.5 44.5 C-572.52370574 47.69931722 -568.73331702 51.02584945 -565 54.5 C-560.38998361 58.7895776 -555.62216764 62.80410897 -550.71484375 66.75390625 C-547.89326505 69.0883059 -545.19409288 71.51990598 -542.5 74 C-538.92207537 77.29331699 -535.28460334 80.44651321 -531.5 83.5 C-526.74260332 87.33835414 -522.24216082 91.39622359 -517.74609375 95.53515625 C-515.08124834 97.92707297 -512.35168175 100.19254884 -509.5625 102.4375 C-505.02763839 106.09506264 -500.74463817 109.94617027 -496.48291016 113.91162109 C-492.37220724 117.71398807 -488.07724416 121.24270592 -483.71484375 124.75390625 C-479.93432714 127.88167179 -476.35519125 131.21273883 -472.74609375 134.53515625 C-470.08124834 136.92707297 -467.35168175 139.19254884 -464.5625 141.4375 C-460.02763839 145.09506264 -455.74463817 148.94617027 -451.48291016 152.91162109 C-447.37220724 156.71398807 -443.07724416 160.24270592 -438.71484375 163.75390625 C-434.93432714 166.88167179 -431.35519125 170.21273883 -427.74609375 173.53515625 C-425.08124834 175.92707297 -422.35168175 178.19254884 -419.5625 180.4375 C-415.02763839 184.09506264 -410.74463817 187.94617027 -406.48291016 191.91162109 C-402.37220724 195.71398807 -398.07724416 199.24270592 -393.71484375 202.75390625 C-389.94353337 205.87405512 -386.37260485 209.19615341 -382.7734375 212.51171875 C-379.12900886 215.78143853 -375.33870707 218.84696885 -371.5078125 221.89453125 C-368.8479043 224.12769406 -366.42202032 226.51287161 -364 229 C-365 231 -366 233 -367 235 C-364.5636811 235.67126129 -362.12611117 236.33716354 -359.6875 237 C-358.99720703 237.19078125 -358.30691406 237.3815625 -357.59570312 237.578125 C-354.64212051 238.37716184 -352.07440781 239 -349 239 C-351.31 233.72 -353.62 228.44 -356 223 C-357.32 223.99 -358.64 224.98 -360 226 C-368.89818604 222.03607489 -376.17463501 213.9817899 -383.25390625 207.46484375 C-385.91875166 205.07292703 -388.64831825 202.80745116 -391.4375 200.5625 C-395.97236161 196.90493736 -400.25536183 193.05382973 -404.51708984 189.08837891 C-408.62779276 185.28601193 -412.92275584 181.75729408 -417.28515625 178.24609375 C-421.06567286 175.11832821 -424.64480875 171.78726117 -428.25390625 168.46484375 C-430.91875166 166.07292703 -433.64831825 163.80745116 -436.4375 161.5625 C-440.97236161 157.90493736 -445.25536183 154.05382973 -449.51708984 150.08837891 C-453.62779276 146.28601193 -457.92275584 142.75729408 -462.28515625 139.24609375 C-466.06567286 136.11832821 -469.64480875 132.78726117 -473.25390625 129.46484375 C-475.91875166 127.07292703 -478.64831825 124.80745116 -481.4375 122.5625 C-485.97236161 118.90493736 -490.25536183 115.05382973 -494.51708984 111.08837891 C-498.62779276 107.28601193 -502.92275584 103.75729408 -507.28515625 100.24609375 C-511.06567286 97.11832821 -514.64480875 93.78726117 -518.25390625 90.46484375 C-520.91875166 88.07292703 -523.64831825 85.80745116 -526.4375 83.5625 C-530.97236161 79.90493736 -535.25536183 76.05382973 -539.51708984 72.08837891 C-543.62779276 68.28601193 -547.92275584 64.75729408 -552.28515625 61.24609375 C-556.06567286 58.11832821 -559.64480875 54.78726117 -563.25390625 51.46484375 C-565.91875166 49.07292703 -568.64831825 46.80745116 -571.4375 44.5625 C-576.18256514 40.74046626 -580.67642692 36.7083849 -585.11694336 32.54125977 C-587.83914974 29.96899968 -587.83914974 29.96899968 -591 28 C-591 27.34 -591 26.68 -591 26 C-589.34765625 24.58984375 -589.34765625 24.58984375 -587.0625 22.9375 C-578.18134734 16.56404277 -578.18134734 16.56404277 -572.228351 7.81524044 C-570.89051487 4.64824452 -569.74550858 3.11495024 -567 1 C-560.09737205 -0.87873607 -552.4790512 -0.17229671 -545.39834595 -0.08229065 C-543.12451753 -0.08621411 -540.85069306 -0.09409208 -538.57689035 -0.10559314 C-532.31906187 -0.12575946 -526.06261436 -0.08966278 -519.80496192 -0.04459059 C-513.75293362 -0.00977726 -507.70105586 -0.01723112 -501.64896786 -0.02372717 C-489.26841324 -0.03555266 -476.8882909 -0.005479 -464.50786209 0.04842949 C-452.24876391 0.10167291 -439.98984575 0.13632091 -427.73063278 0.14610481 C-426.58751535 0.1470328 -426.58751535 0.1470328 -425.42130463 0.14797953 C-421.55113384 0.15102451 -417.68096289 0.15373697 -413.81079178 0.15632141 C-386.39440918 0.17522791 -358.9782618 0.23587168 -331.56201172 0.32104492 C-304.92660778 0.40369686 -278.29126819 0.46745318 -251.65576172 0.50561523 C-250.83482012 0.50679897 -250.01387853 0.50798271 -249.16805992 0.50920231 C-240.92386815 0.52106894 -232.67967589 0.53255127 -224.4354832 0.54375205 C-207.64093515 0.5665783 -190.8463913 0.59196957 -174.05184937 0.61891174 C-173.2796542 0.62014735 -172.50745903 0.62138296 -171.71186401 0.62265601 C-120.14114317 0.70546971 -68.57055876 0.84826453 -17 1 C-17 3.31 -17 5.62 -17 8 C-15.94039062 7.4225 -14.88078125 6.845 -13.7890625 6.25 C-12.40115942 5.49978212 -11.01313213 4.74979399 -9.625 4 C-8.92632813 3.6184375 -8.22765625 3.236875 -7.5078125 2.84375 C-2.2265625 0 -2.2265625 0 0 0 Z " fill="#FEFEFE" transform="translate(868,373)"/>
<path d="M0 0 C6.38071729 0.54416021 12.42253314 2.37760168 18.5625 4.125 C19.66078125 4.4348584 20.7590625 4.7447168 21.890625 5.06396484 C30.97465859 7.65249628 39.96924902 10.48493976 48.95703125 13.38671875 C55.42969464 15.47134179 61.95166897 17.37082859 68.48193359 19.26513672 C73.82672728 20.82494174 79.16239 22.41582637 84.5 24 C93.37459246 26.6314092 102.25060531 29.25768796 111.1328125 31.86328125 C113.73331193 32.6264001 116.33207038 33.39509748 118.9296875 34.16796875 C126.26249625 36.3446327 133.60955023 38.45222619 140.98266602 40.48876953 C150.98166834 43.25378655 160.89623447 46.18283416 170.76708984 49.37451172 C184.55950403 53.818321 198.50096126 57.76240805 212.46557617 61.62548828 C222.46847066 64.3942363 232.38825679 67.3289247 242.26538086 70.51782227 C249.63591812 72.8971186 257.04408767 75.10755616 264.48193359 77.26513672 C269.82672728 78.82494174 275.16239 80.41582637 280.5 82 C291.78267091 85.34542958 303.06964514 88.67570476 314.36279297 91.9855957 C330.30535829 96.66455524 346.2287275 101.40854628 362.15563965 106.14044189 C387.68686457 113.72788194 387.68686457 113.72788194 413.24047852 121.23950195 C425.18916777 124.7316032 437.09588374 128.35916794 449 132 C448.34 134.31 447.68 136.62 447 139 C448.03640625 138.7834375 449.0728125 138.566875 450.140625 138.34375 C451.51037448 138.06229463 452.88016851 137.781056 454.25 137.5 C454.93191406 137.35691406 455.61382813 137.21382812 456.31640625 137.06640625 C459.64633121 136.38748951 462.58332551 136 466 136 C466.03738281 137.08796875 466.07476563 138.1759375 466.11328125 139.296875 C466.70686394 153.57873538 469.03343966 166.30433945 476.65625 178.69140625 C478 181 478 181 478 183 C473.38 183 468.76 183 464 183 C464.66 185.31 465.32 187.62 466 190 C465.06953857 190.4626123 464.13907715 190.92522461 463.18041992 191.40185547 C442.73777994 201.5009205 442.73777994 201.5009205 422.5 212 C413.00672536 217.07631914 403.35766471 221.83772121 393.72119141 226.63427734 C385.60384117 230.67632213 377.49735925 234.72373849 369.5 239 C360.0066475 244.07618286 350.35767073 248.83771821 340.72119141 253.63427734 C332.60384117 257.67632213 324.49735925 261.72373849 316.5 266 C307.00730959 271.07582883 297.35902065 275.83706094 287.72320557 280.63327026 C278.85228621 285.05053662 270.01786736 289.51221521 261.27734375 294.18359375 C252.88877955 298.6395512 244.36742067 302.83157409 235.86413574 307.06280518 C228.07371171 310.94099482 220.30065944 314.83523881 212.625 318.9375 C203.83710699 323.63307178 194.91900322 328.06058247 186 332.5 C172.68405585 339.12121028 172.68405585 339.12121028 159.5 346 C150.0066475 351.07618286 140.35767073 355.83771821 130.72119141 360.63427734 C122.60384117 364.67632213 114.49735925 368.72373849 106.5 373 C97.00730959 378.07582883 87.35902065 382.83706094 77.72320557 387.63327026 C68.85228621 392.05053662 60.01786736 396.51221521 51.27734375 401.18359375 C42.88877955 405.6395512 34.36742067 409.83157409 25.86413574 414.06280518 C18.07371171 417.94099482 10.30065944 421.83523881 2.625 425.9375 C-6.16289301 430.63307178 -15.08099678 435.06058247 -24 439.5 C-37.31594415 446.12121028 -37.31594415 446.12121028 -50.5 453 C-59.98739363 458.07299659 -69.63017958 462.83180366 -79.26068115 467.62521362 C-88.49884121 472.22518629 -97.69709976 476.87990037 -106.81030273 481.72412109 C-111.86785306 484.41136735 -116.94913903 487.04537421 -122.0625 489.625 C-122.73684082 489.96861572 -123.41118164 490.31223145 -124.10595703 490.66625977 C-128.76369074 493 -128.76369074 493 -131 493 C-131.27972656 492.20078125 -131.55945313 491.4015625 -131.84765625 490.578125 C-136.42522647 478.03764324 -142.51584908 464.65610061 -154 457 C-152.61219205 453.10993227 -150.7847773 450.03441292 -148.375 446.6875 C-147.74335937 445.80449219 -147.11171875 444.92148437 -146.4609375 444.01171875 C-145.73777344 443.01591797 -145.73777344 443.01591797 -145 442 C-146.98 441.67 -148.96 441.34 -151 441 C-150.47783532 431.20422828 -149.28537763 421.73128943 -147.625 412.0625 C-147.16688824 409.32894061 -146.7151009 406.59436665 -146.265625 403.859375 C-146.15483612 403.18642899 -146.04404724 402.51348297 -145.92990112 401.82014465 C-144.95360117 395.83230851 -144.13108461 389.83157741 -143.375 383.8125 C-141.7669509 371.05523682 -139.88090969 358.35761786 -137.8046875 345.66796875 C-137.36953661 343.00785381 -136.93450833 340.34771987 -136.5 337.6875 C-136.33643005 336.68642715 -136.33643005 336.68642715 -136.16955566 335.66513062 C-134.46664409 325.21195365 -132.99703154 314.74541205 -131.671875 304.23828125 C-130.29453292 293.35688074 -128.58422134 282.52514144 -126.8046875 271.703125 C-126.36935995 269.05215306 -125.9342903 266.40114177 -125.5 263.75 C-125.33692856 262.75533218 -125.33692856 262.75533218 -125.17056274 261.74057007 C-123.55613257 251.85588931 -122.14046893 241.96246063 -120.98828125 232.01269531 C-120.33559487 226.41387 -119.5012019 220.87496638 -118.55102539 215.3190918 C-117.57861542 209.46179736 -116.73905552 203.58436532 -115.88400269 197.70901489 C-115.33390705 193.92935921 -114.77990115 190.15027576 -114.2265625 186.37109375 C-114.11865891 185.63334213 -114.01075531 184.89559052 -113.89958191 184.13548279 C-112.97845918 177.84097392 -112.03963122 171.54924248 -111.08959961 165.2590332 C-110.41735246 160.8018337 -109.7563131 156.34319244 -109.10546875 151.8828125 C-107.41388856 140.31825948 -105.65399614 128.76961015 -103.76306152 117.23590088 C-101.85416877 105.59179825 -100.14818349 93.94485693 -98.671875 82.23828125 C-96.9074513 68.29882411 -94.60515697 54.43333068 -92.375 40.5625 C-92.26472473 39.87575195 -92.15444946 39.18900391 -92.04083252 38.48144531 C-91.72371378 36.50957556 -91.4048549 34.5379859 -91.0859375 32.56640625 C-90.9007959 31.42115479 -90.7156543 30.27590332 -90.52490234 29.09594727 C-90.06524857 26.38484518 -89.55682644 23.69258614 -89 21 C-88.03964844 21.28875 -87.07929687 21.5775 -86.08984375 21.875 C-77.392416 24.30043118 -69.16464587 25.38680785 -60.125 25.375 C-59.187771 25.37628906 -58.25054199 25.37757813 -57.28491211 25.37890625 C-47.83445915 25.23268386 -38.82614854 23.72224253 -30 20.3125 C-29.31921387 20.05122314 -28.63842773 19.78994629 -27.93701172 19.52075195 C-16.97875241 15.15063226 -8.30455726 8.30455726 0 0 Z " fill="#FEFEFE" transform="translate(1003,419)"/>
<path d="M0 0 C0.66 0 1.32 0 2 0 C2.47308594 1.02738281 2.94617187 2.05476562 3.43359375 3.11328125 C12.85537343 23.06755786 26.86354591 36.68081874 47.67578125 44.35546875 C56.62045597 47.16144259 64.46748404 48.18185346 73.8125 48.1875 C74.86759766 48.19974609 75.92269531 48.21199219 77.00976562 48.22460938 C83.07997117 48.23595555 88.16674472 47.6235573 94 46 C95.6662377 45.9621887 97.33394563 45.95482673 99 46 C102.42026052 58.10123819 105.63141791 70.23862079 108.66796875 82.44140625 C109.10449541 84.18837402 109.54120731 85.93529551 109.97808838 87.68217468 C111.14263916 92.34152136 112.30409204 97.00163481 113.46479416 101.66194153 C114.44110877 105.58035128 115.41924203 109.49830628 116.39727116 113.41628838 C123.15909889 140.50738264 129.86517779 167.61202566 136.53900146 194.72491455 C141.44807777 214.66831803 146.36896071 234.60864752 151.33987427 254.53674316 C151.97576532 257.08604195 152.61039683 259.63564329 153.24435425 262.1854248 C156.17176546 273.95542661 159.09795655 285.71755615 162.44221497 297.37742615 C163.99314297 302.80846021 165.50510286 308.35581594 166 314 C165 315 165 315 161.9375 315.0625 C160.968125 315.041875 159.99875 315.02125 159 315 C159.60328125 315.73605469 160.2065625 316.47210938 160.828125 317.23046875 C161.62734375 318.20628906 162.4265625 319.18210937 163.25 320.1875 C164.03890625 321.15042969 164.8278125 322.11335938 165.640625 323.10546875 C167.77584772 325.72500523 169.89356361 328.35729197 172 331 C171.70867187 331.51046875 171.41734375 332.0209375 171.1171875 332.546875 C169.72294591 335.01968085 168.35935742 337.50784473 167 340 C166.484375 340.928125 165.96875 341.85625 165.4375 342.8125 C161.59934152 350.02823795 159.476168 356.9717179 158 365 C154.03471107 363.26083819 151.69560062 360.78255339 148.78125 357.65625 C146.95488055 355.95804683 145.27278771 354.99683672 143 354 C142.34 355.65 141.68 357.3 141 359 C132.97332669 357.47876607 125.3807996 355.57882374 117.65966797 352.90307617 C112.28319457 351.05340986 106.85647561 349.59003477 101.35546875 348.1640625 C85.95754912 344.11333263 70.68597212 339.42944357 55.52734375 334.56640625 C47.02697534 331.84632263 38.53552265 329.29224444 29.89453125 327.046875 C22.83985799 325.18303431 15.87714971 322.9865738 8.89453125 320.87255859 C3.51818221 319.25185419 -1.86595163 317.65740529 -7.25 316.0625 C-8.39251221 315.72395996 -9.53502441 315.38541992 -10.7121582 315.03662109 C-18.2816988 312.79675844 -25.85763159 310.57962834 -33.4375 308.375 C-47.2737179 304.34740749 -61.08630586 300.26439877 -74.8125 295.875 C-81.42674874 293.76418376 -88.06334786 291.87321918 -94.78515625 290.12890625 C-110.13461419 286.08316517 -125.35983228 281.41474907 -140.47265625 276.56640625 C-148.86708477 273.87998599 -157.25116709 271.34348107 -165.78515625 269.12890625 C-181.13461419 265.08316517 -196.35983228 260.41474907 -211.47265625 255.56640625 C-219.97302466 252.84632263 -228.46447735 250.29224444 -237.10546875 248.046875 C-244.14987161 246.18574775 -251.1022999 243.99242025 -258.07470703 241.88134766 C-263.60672089 240.21463341 -269.14744025 238.57723143 -274.6875 236.9375 C-275.83355713 236.5981543 -276.97961426 236.25880859 -278.16040039 235.90917969 C-287.10388321 233.26239654 -296.05027334 230.62558977 -305 228 C-303.46810734 223.93781696 -301.5665982 220.16123052 -299.5625 216.3125 C-296.68712693 210.68470902 -294.49526558 205.14209094 -293 199 C-292.82944092 198.37988037 -292.65888184 197.75976074 -292.4831543 197.12084961 C-290.00134395 186.22671797 -291.81939835 174.44285557 -295.22265625 164.00390625 C-296.02064675 160.92021432 -296.19309855 159.86989528 -295 157 C-293.12426758 155.63476562 -293.12426758 155.63476562 -290.64453125 154.40625 C-289.26358276 153.70665161 -289.26358276 153.70665161 -287.85473633 152.99291992 C-286.85079834 152.50025635 -285.84686035 152.00759277 -284.8125 151.5 C-282.68654038 150.42507289 -280.5615621 149.34820301 -278.4375 148.26953125 C-277.35597656 147.72377441 -276.27445313 147.17801758 -275.16015625 146.61572266 C-270.49393062 144.22997782 -265.9019021 141.71706819 -261.3125 139.1875 C-252.94395744 134.59433115 -244.54383303 130.06265786 -236.125 125.5625 C-227.36237271 120.87732189 -218.60910682 116.17572395 -209.875 111.4375 C-196.17025808 104.00272301 -182.43961097 96.61632483 -168.70898438 89.22949219 C-157.1315915 83.00053839 -145.55747493 76.76584869 -134 70.5 C-119.13550122 62.44125873 -104.24438056 54.43203777 -89.3515625 46.42578125 C-78.38092141 40.52598548 -67.42405484 34.60320141 -56.49633789 28.62426758 C-47.5695396 23.74854425 -38.60099683 18.9513131 -29.62744141 14.16235352 C-28.50644043 13.56350342 -27.38543945 12.96465332 -26.23046875 12.34765625 C-24.63404541 11.49518311 -24.63404541 11.49518311 -23.00537109 10.62548828 C-19.53985656 8.75112632 -16.1120889 6.8159909 -12.70043945 4.84545898 C-11 4 -11 4 -9 4 C-7.375 6.5 -7.375 6.5 -6 9 C-5.38511719 8.02546875 -5.38511719 8.02546875 -4.7578125 7.03125 C-4.21898437 6.1959375 -3.68015625 5.360625 -3.125 4.5 C-2.59132813 3.6646875 -2.05765625 2.829375 -1.5078125 1.96875 C-1.01023437 1.3190625 -0.51265625 0.669375 0 0 Z " fill="#FEFEFE" transform="translate(1312,188)"/>
<path d="M0 0 C5.28 5.28 5.28 5.28 7.5 8.25 C13.31817466 15.15908241 21.94348762 20.16587664 30 24 C29.34819809 31.68918127 28.52203436 39.3434079 27.5625 47 C27.44068359 48.00289063 27.31886719 49.00578125 27.19335938 50.0390625 C26.46343292 55.89360212 25.54307073 61.67494648 24.45288086 67.47265625 C23.82572718 70.97254571 23.40539738 74.46725139 23 78 C22.50259738 82.33450855 21.90839061 86.58913977 21.09375 90.875 C19.6044836 98.87291216 18.58687079 106.93972677 17.5 115 C17.07575358 118.14622683 16.64820166 121.2919799 16.21875 124.4375 C16.12597778 125.13367432 16.03320557 125.82984863 15.93762207 126.54711914 C15.40005835 130.48215041 14.76045131 134.38377851 14.03662109 138.2890625 C12.95218481 144.15330468 12.05858884 150.03715909 11.1953125 155.9375 C11.03006073 157.05648682 10.86480896 158.17547363 10.69454956 159.32836914 C10.1696455 162.8853283 9.64725529 166.44265107 9.125 170 C8.78272295 172.32294185 8.44027618 174.6458587 8.09765625 176.96875 C7.41054821 181.62809802 6.72472185 186.28763241 6.03955078 190.94726562 C5.33901846 195.70701516 4.6339929 200.46606918 3.92529297 205.22460938 C2.00017039 218.15407395 0.13094432 231.08560742 -1.59765625 244.04296875 C-2.4371851 250.23883043 -3.40454016 256.38050152 -4.55810547 262.52539062 C-5.17987954 266.00732541 -5.59672603 269.48575538 -6 273 C-6.62194731 278.41982652 -7.48089872 283.73501044 -8.47802734 289.09814453 C-9.36484515 294.02832062 -10.08665583 298.98147537 -10.8125 303.9375 C-10.97991699 305.07123047 -11.14733398 306.20496094 -11.31982422 307.37304688 C-12.34553938 314.3707244 -13.33475987 321.37277997 -14.30078125 328.37890625 C-14.41088028 329.17666977 -14.52097931 329.97443329 -14.63441467 330.79637146 C-15.17671915 334.73081761 -15.71558683 338.66569321 -16.24926758 342.60131836 C-17.19817695 349.55558227 -18.21687619 356.47681846 -19.52197266 363.375 C-20.43634933 368.3961328 -21.141147 373.44991302 -21.875 378.5 C-22.22653981 380.89453458 -22.57810297 383.28906573 -22.9296875 385.68359375 C-23.10725586 386.89772949 -23.28482422 388.11186523 -23.46777344 389.36279297 C-24.30681737 395.09677299 -25.15229108 400.8297952 -26 406.5625 C-26.16193848 407.65796143 -26.32387695 408.75342285 -26.49072266 409.88208008 C-28.27722399 421.92903642 -30.13349064 433.96521578 -32 446 C-34.31 446 -36.62 446 -39 446 C-38.77183594 446.53109375 -38.54367187 447.0621875 -38.30859375 447.609375 C-38.02113281 448.31578125 -37.73367188 449.0221875 -37.4375 449.75 C-37.14746094 450.44609375 -36.85742188 451.1421875 -36.55859375 451.859375 C-35.92168197 454.30012784 -36.19751169 455.6403655 -37 458 C-37.93199219 457.46890625 -38.86398437 456.9378125 -39.82421875 456.390625 C-58.89566076 445.73971804 -80.74367403 441.20091332 -102.375 446.5 C-110.78332882 448.9098097 -118.33733211 452.84489136 -126 457 C-127.32 457.66 -128.64 458.32 -130 459 C-130 454.71 -130 450.42 -130 446 C-132.475 447.485 -132.475 447.485 -135 449 C-135.99 449 -136.98 449 -138 449 C-139.6472168 446.84228516 -139.6472168 446.84228516 -141.44921875 443.7890625 C-142.12404297 442.65984375 -142.79886719 441.530625 -143.49414062 440.3671875 C-144.22529736 439.11981332 -144.95641612 437.87241688 -145.6875 436.625 C-146.4499153 435.34300187 -147.21360457 434.06176059 -147.97851562 432.78125 C-149.15866531 430.80511225 -150.33791877 428.82849201 -151.51315308 426.84942627 C-155.27109066 420.5218287 -159.1270319 414.25789853 -163 408 C-168.57752584 398.95903837 -174.11632138 389.89549549 -179.625 380.8125 C-180.16034866 379.92984467 -180.16034866 379.92984467 -180.70651245 379.02935791 C-182.47021051 376.12117867 -184.23347524 373.21273695 -185.99658203 370.30419922 C-193.23334476 358.36874384 -200.48510087 346.44289858 -207.81079102 334.56176758 C-209.13915652 332.40550261 -210.465189 330.24779855 -211.78881836 328.08862305 C-215.03762982 322.79055519 -218.30341459 317.50673369 -221.62937927 312.2568512 C-223.24804576 309.69594927 -224.85216156 307.12611187 -226.45419312 304.55477905 C-227.22984025 303.3177265 -228.01202636 302.0847481 -228.80093384 300.85610962 C-229.89695939 299.1477136 -230.96860685 297.42375163 -232.0390625 295.69921875 C-232.97032959 294.22714966 -232.97032959 294.22714966 -233.92041016 292.7253418 C-235 290 -235 290 -234.26831055 287.27099609 C-233.02291497 285.04103081 -231.69340836 282.99968058 -230.1875 280.9375 C-219.77009653 265.56547781 -216.82859512 247.18481362 -220 229.0625 C-224.77743371 209.2574579 -237.38323206 195.37136501 -253 183 C-252.33133911 182.51926025 -252.33133911 182.51926025 -251.64916992 182.02880859 C-242.89781076 175.73281868 -234.17026177 169.40731985 -225.5 163 C-217.12063805 156.80972494 -208.68892412 150.69525529 -200.23388672 144.60888672 C-196.48640216 141.90987872 -192.74344155 139.20461116 -189 136.5 C-187.50002146 135.41663696 -186.00002146 134.33330362 -184.5 133.25 C-183.7575 132.71375 -183.015 132.1775 -182.25 131.625 C-175.5 126.75 -175.5 126.75 -173.25024414 125.12524414 C-171.7493445 124.04121584 -170.24853078 122.95706858 -168.74780273 121.87280273 C-165.01226033 119.17412345 -161.27527746 116.47748688 -157.53515625 113.78515625 C-149.74084153 108.17096822 -141.975464 102.52114617 -134.25 96.8125 C-127.73131921 91.99605784 -121.1755172 87.23977065 -114.5703125 82.54296875 C-104.05774678 75.0657213 -93.62531786 67.47881132 -83.25 59.8125 C-76.73275702 54.99714943 -70.17886726 50.24135556 -63.57421875 45.546875 C-59.45110441 42.61457278 -55.35033544 39.65153448 -51.25 36.6875 C-50.49702637 36.14319336 -49.74405273 35.59888672 -48.96826172 35.03808594 C-47.42718871 33.92390749 -45.88617364 32.8096489 -44.34521484 31.6953125 C-41.9769726 29.98335392 -39.60778995 28.27270517 -37.23828125 26.5625 C-29.14800377 20.72315325 -21.06226681 14.87799629 -13 9 C-10.53199953 10.15173355 -8.95216435 11.04783565 -7 13 C-4.69 8.71 -2.38 4.42 0 0 Z " fill="#FEFEFE" transform="translate(880,413)"/>
<path d="M0 0 C2.16033044 1.65698814 4.19856033 3.39291137 6.234375 5.19921875 C6.82089844 5.63363281 7.40742188 6.06804687 8.01171875 6.515625 C19.75894135 15.43925215 28.14643332 31.8386428 30.234375 46.19921875 C32.00192717 64.97139693 27.48411767 81.94779592 16.01953125 97.1328125 C4.04458079 111.1262311 -13.35445157 121.12318139 -31.765625 123.19921875 C-45.91258255 124.07579443 -58.6391751 123.78902157 -71.765625 118.19921875 C-73.39371094 117.51279297 -73.39371094 117.51279297 -75.0546875 116.8125 C-82.10993316 113.55279789 -87.97009598 109.34855638 -93.765625 104.19921875 C-94.40242188 103.64492188 -95.03921875 103.090625 -95.6953125 102.51953125 C-105.61095129 93.30900456 -113.81694547 78.55760039 -114.9543457 64.93969727 C-115.03287915 62.56399805 -115.0433958 60.20101617 -115.015625 57.82421875 C-115.00885742 56.98568359 -115.00208984 56.14714844 -114.99511719 55.28320312 C-114.89667343 49.39031428 -114.48994837 43.86485267 -112.765625 38.19921875 C-112.50910156 37.32394531 -112.25257813 36.44867188 -111.98828125 35.546875 C-106.03874627 17.34078728 -92.65814935 3.93568181 -76.078125 -5.05078125 C-52.01580075 -16.34156417 -22.37200253 -14.56708074 0 0 Z " fill="#FDFDFD" transform="translate(275.765625,284.80078125)"/>
<path d="M0 0 C1.11334717 0.00491455 2.22669434 0.0098291 3.3737793 0.01489258 C11.27246429 0.12757409 18.3072467 0.69043838 25.8125 3.3125 C26.79605469 3.64121094 27.77960938 3.96992188 28.79296875 4.30859375 C47.18727062 11.18563546 60.68280767 24.69160981 69.19921875 42.15625 C72.40451767 49.87756487 74.17470305 57.28169605 74.0625 65.625 C74.05500732 66.3684668 74.04751465 67.11193359 74.03979492 67.87792969 C73.7459757 83.01208155 69.31566285 96.41860436 59.8125 108.3125 C59.22855469 109.07175781 58.64460938 109.83101562 58.04296875 110.61328125 C49.28731473 121.28596268 37.62795991 127.6900451 24.8125 132.3125 C23.87277344 132.6528125 22.93304687 132.993125 21.96484375 133.34375 C4.17078166 138.74954101 -17.21257499 136.09762543 -33.52026367 127.56835938 C-42.51636899 122.62134012 -51.27718464 116.90565475 -57.1875 108.3125 C-57.1875 107.6525 -57.1875 106.9925 -57.1875 106.3125 C-57.8475 106.3125 -58.5075 106.3125 -59.1875 106.3125 C-66.0885682 97.52932229 -70.65706921 85.45154654 -71.1875 74.3125 C-71.26291016 72.90484375 -71.26291016 72.90484375 -71.33984375 71.46875 C-71.90945024 52.69452004 -66.05689535 36.09279629 -53.1875 22.3125 C-43.82754304 12.71498068 -33.04134598 6.14323658 -20.1875 2.3125 C-19.01058594 1.95414062 -17.83367187 1.59578125 -16.62109375 1.2265625 C-11.13102385 -0.1107953 -5.62251 -0.02910158 0 0 Z " fill="#FDFDFD" transform="translate(1544.1875,494.6875)"/>
<path d="M0 0 C12.94380706 10.3754296 23.15352759 24.31589121 26 41 C27.59583289 59.94092525 24.49965875 78.21322177 12.41796875 93.40625 C0.17681099 107.73298754 -17.11429577 117.95567119 -36 120 C-59.32241372 121.38510765 -79.43081534 117.15702702 -97.4375 101.53515625 C-109.31105542 89.78830036 -117.82304588 74.90534103 -119 58 C-119.07734375 56.9171875 -119.1546875 55.834375 -119.234375 54.71875 C-119.96083826 35.50783265 -111.95078933 18.98685248 -99 5 C-96 3 -96 3 -93 3 C-92.95746094 2.13568359 -92.95746094 2.13568359 -92.9140625 1.25390625 C-91.50216692 -2.22756275 -88.54474904 -3.37348588 -85.375 -5.0625 C-84.46814453 -5.57006836 -84.46814453 -5.57006836 -83.54296875 -6.08789062 C-57.63765436 -20.36619291 -23.4141675 -18.56377499 0 0 Z " fill="#FDFDFD" transform="translate(844,876)"/>
<path d="M0 0 C1.20914063 0.44601562 2.41828125 0.89203125 3.6640625 1.3515625 C4.55867187 1.68929687 5.45328125 2.02703125 6.375 2.375 C6.375 4.025 6.375 5.675 6.375 7.375 C7.11621094 7.00117187 7.85742188 6.62734375 8.62109375 6.2421875 C11.375 5.375 11.375 5.375 13.41015625 6.0703125 C29.87466427 17.68112162 40.22021955 32.02598432 44.953125 51.7890625 C47.88464285 69.7581812 42.50641201 87.63130645 32.2734375 102.41015625 C21.17636075 116.66382197 3.6801548 127.73677301 -14.4855957 130.16772461 C-36.09412555 132.261259 -55.69012338 129.27972105 -73.4375 116 C-74.8519109 114.81346641 -76.24785682 113.60459213 -77.625 112.375 C-78.37265625 111.73175781 -79.1203125 111.08851563 -79.890625 110.42578125 C-90.36838957 100.78552507 -98.95198579 85.52876737 -99.74975586 71.12207031 C-100.37543051 51.1238711 -97.10997479 34.14228307 -83.3125 18.9375 C-61.53126072 -3.96352949 -29.47092372 -10.97936374 0 0 Z " fill="#FDFDFD" transform="translate(612.625,593.625)"/>
<path d="M0 0 C0.71285156 0.56976563 1.42570313 1.13953125 2.16015625 1.7265625 C2.84207031 2.23445313 3.52398438 2.74234375 4.2265625 3.265625 C10.83960376 8.51982216 17.46716413 16.64758614 20.16015625 24.7265625 C19.17015625 25.3246875 18.18015625 25.9228125 17.16015625 26.5390625 C16.17015625 27.2609375 15.18015625 27.9828125 14.16015625 28.7265625 C14.16015625 29.7165625 14.16015625 30.7065625 14.16015625 31.7265625 C15.08828125 31.2109375 16.01640625 30.6953125 16.97265625 30.1640625 C20.16015625 28.7265625 20.16015625 28.7265625 23.16015625 29.7265625 C24.07543304 32.16015797 24.75434066 34.39898323 25.34765625 36.9140625 C25.52055176 37.63223145 25.69344727 38.35040039 25.87158203 39.09033203 C29.74600547 56.43171695 26.05169981 73.50435588 16.78515625 88.5390625 C5.71896455 104.9132348 -9.48875797 114.80843267 -28.52734375 119.6640625 C-49.11131416 123.41940488 -68.89763338 120.53141869 -86.83984375 109.7265625 C-90.3785109 107.26066002 -93.63721401 104.61238534 -96.83984375 101.7265625 C-97.79117188 100.89705078 -97.79117188 100.89705078 -98.76171875 100.05078125 C-110.12053628 89.52125792 -117.52971635 73.37088372 -118.140625 57.89453125 C-118.37258175 38.41596311 -113.76044083 22.15107249 -100.11694336 7.80615234 C-73.74002362 -18.60238898 -29.99629464 -22.73508809 0 0 Z " fill="#FDFDFD" transform="translate(989.83984375,320.2734375)"/>
<path d="M0 0 C21.8279736 -0.57723339 21.8279736 -0.57723339 31 3 C31.98097656 3.36351562 32.96195312 3.72703125 33.97265625 4.1015625 C53.79403282 11.86973789 67.65139517 24.95615374 76.5546875 44.19140625 C83.01109062 60.10578197 81.51745787 78.43436925 75 94 C68.2836702 109.76699375 54.53086579 122.37822257 39.0625 129.375 C19.81972197 136.90478271 -2.56967334 138.32566201 -21.93554688 130.18652344 C-41.15734344 121.51655226 -54.42138421 107.27577675 -61.9296875 87.55859375 C-67.46696629 71.97510917 -65.99643019 55.53321062 -59.4921875 40.51953125 C-55.68314389 32.96345171 -50.99431101 26.93476487 -45 21 C-43.89398438 19.84371094 -43.89398438 19.84371094 -42.765625 18.6640625 C-32.99800837 9.06033205 -17.94270732 1 -4 1 C-4 3.97 -4 6.94 -4 10 C-3.01 10 -2.02 10 -1 10 C-0.67 6.7 -0.34 3.4 0 0 Z " fill="#FDFDFD" transform="translate(139,861)"/>
<path d="M0 0 C12.73206343 10.03719069 22.08050451 23.73876792 25.64453125 39.6796875 C25.94835041 43.57900398 25.97826047 47.45737256 25.95703125 51.3671875 C25.9513916 52.4406543 25.94575195 53.51412109 25.93994141 54.62011719 C25.6414339 74.06152705 17.72818276 89.29210406 3.87890625 102.765625 C-1.58476148 107.44603967 -11.84379204 115.6796875 -19.35546875 115.6796875 C-19.35546875 114.6896875 -19.35546875 113.6996875 -19.35546875 112.6796875 C-20.84046875 113.1746875 -20.84046875 113.1746875 -22.35546875 113.6796875 C-23.08870671 115.69477108 -23.08870671 115.69477108 -23.35546875 117.6796875 C-42.31339899 124.03683776 -63.61231037 121.58161437 -81.40039062 112.93774414 C-87.33982557 109.88153676 -92.45787969 106.23472307 -97.35546875 101.6796875 C-97.98582031 101.12796875 -98.61617187 100.57625 -99.265625 100.0078125 C-106.93661667 92.92689711 -113.25466611 82.644246 -116.35546875 72.6796875 C-115.98046875 70.36328125 -115.98046875 70.36328125 -115.35546875 68.6796875 C-116.01546875 68.6796875 -116.67546875 68.6796875 -117.35546875 68.6796875 C-118.79161582 63.71289229 -118.57936213 58.75040139 -118.60546875 53.6171875 C-118.63640625 52.13702148 -118.63640625 52.13702148 -118.66796875 50.62695312 C-118.75181172 34.62342675 -112.49566528 20.17896713 -101.46582031 8.7355957 C-100.10856333 7.37071628 -98.73252974 6.02458356 -97.35546875 4.6796875 C-96.70964844 4.01324219 -96.06382813 3.34679687 -95.3984375 2.66015625 C-70.02477322 -21.829023 -27.37780836 -19.60345907 0 0 Z " fill="#FDFDFD" transform="translate(1432.35546875,112.3203125)"/>
<path d="M0 0 C4.35970831 1.34849837 8.31341438 3.04907846 12.375 5.125 C13.43460938 5.66382813 14.49421875 6.20265625 15.5859375 6.7578125 C16.38257813 7.16773438 17.17921875 7.57765625 18 8 C18 8.66 18 9.32 18 10 C15.3773768 11.33819498 12.75213401 12.6707151 10.125 14 C9.37863281 14.3815625 8.63226562 14.763125 7.86328125 15.15625 C7.14785156 15.5171875 6.43242188 15.878125 5.6953125 16.25 C5.03547363 16.58515625 4.37563477 16.9203125 3.69580078 17.265625 C2 18 2 18 0 18 C0 15.69 0 13.38 0 11 C-155.1 11 -310.2 11 -470 11 C-470 9.68 -470 8.36 -470 7 C-314.9 7 -159.8 7 0 7 C0 4.69 0 2.38 0 0 Z " fill="#000000" transform="translate(698,932)"/>
<path d="M0 0 C24.35135135 0 24.35135135 0 30.8125 5.3125 C36.13850671 11.85587968 35.74372404 19.95676224 35 28 C33.46566574 33.40749154 30.78214191 36.9674222 26 40 C21 42 21 42 0 42 C0 28.14 0 14.28 0 0 Z " fill="#090909" transform="translate(927,352)"/>
<path d="M0 0 C6.0328125 -0.0928125 6.0328125 -0.0928125 12.1875 -0.1875 C14.07698364 -0.22846802 14.07698364 -0.22846802 16.00463867 -0.27026367 C17.50861206 -0.28150269 17.50861206 -0.28150269 19.04296875 -0.29296875 C20.06414795 -0.3086792 21.08532715 -0.32438965 22.13745117 -0.34057617 C25.45710692 0.054385 27.30507811 1.05957287 30 3 C32.56570589 6.42094119 32.43708054 9.84773484 32 14 C30 16.9375 30 16.9375 28 19 C28.825 19.78375 29.65 20.5675 30.5 21.375 C33.49414316 24.96626573 33.66623281 28.09157664 33.42578125 32.66015625 C32.81330478 36.0259673 31.53513048 37.74655069 29 40 C25.66070603 42.09418023 23.04670635 42.23517047 19.140625 42.1953125 C18.13547852 42.19031738 17.13033203 42.18532227 16.09472656 42.18017578 C14.19158691 42.15286377 14.19158691 42.15286377 12.25 42.125 C8.2075 42.08375 4.165 42.0425 0 42 C0 28.14 0 14.28 0 0 Z " fill="#070707" transform="translate(216,320)"/>
<path d="M0 0 C4.44077427 2.22038714 6.91249342 4.49538054 9 9 C10.05875081 13.13942156 10.16588282 17.112093 10.1875 21.375 C10.20167969 22.64085937 10.21585938 23.90671875 10.23046875 25.2109375 C9.90246054 30.60361482 9.1438109 34.64548709 5.625 38.8125 C0.97157915 42.69035071 -1.83359161 43.53158693 -8 43 C-12.0782577 41.7205466 -14.14868542 40.26692677 -16.14453125 36.56640625 C-18.59104242 31.42019642 -18.59133331 26.55069285 -18.5 20.9375 C-18.51546875 19.98294922 -18.5309375 19.02839844 -18.546875 18.04492188 C-18.51254936 11.82768977 -17.63667577 8.07380367 -14 3 C-9.87774858 -0.65113698 -5.26560639 -0.83581054 0 0 Z " fill="#0E0E0E" transform="translate(1250,417)"/>
<path d="M0 0 C4.09766202 1.5176526 7.0115827 3.02316541 9 7 C9.55310065 11.34579086 9.48980198 13.28060335 7 16.9375 C6.01 17.9584375 6.01 17.9584375 5 19 C5.825 19.78375 6.65 20.5675 7.5 21.375 C10.49471467 24.96695121 10.67186008 28.09401858 10.41796875 32.6640625 C9.58780703 37.3036579 7.08555516 39.20569135 3.4375 41.875 C-1.54008603 43.50402816 -5.92099857 43.14587227 -11 42 C-14.4995075 39.92886291 -16.80053298 37.92552844 -18 34 C-18.43014218 28.58020854 -18.40515211 25.45289122 -15 21 C-14.34 20.34 -13.68 19.68 -13 19 C-13.495 18.525625 -13.99 18.05125 -14.5 17.5625 C-16.74351108 13.72983523 -17.02195461 10.31906364 -16 6 C-12.11088544 0.05122975 -6.72367903 -1.23696099 0 0 Z " fill="#0C0C0C" transform="translate(729,739)"/>
<path d="M0 0 C2.88530023 1.56330813 5.03816789 3.365716 7 6 C7.4375 8.875 7.4375 8.875 7 11 C4.75 11.3125 4.75 11.3125 2 11 C1.360625 10.175 0.72125 9.35 0.0625 8.5 C-1.792826 5.70713797 -1.792826 5.70713797 -5 5.4375 C-8.72476048 6.13589259 -9.84743874 6.89074484 -12 10 C-12.80765878 13.64721696 -12.80765878 13.64721696 -13 17 C-12.43023437 16.67773438 -11.86046875 16.35546875 -11.2734375 16.0234375 C-7.55620008 14.35004196 -3.99716412 14.42501799 0 15 C3.8026029 17.0050088 5.61790841 18.42686262 8 22 C8.30078125 24.7421875 8.30078125 24.7421875 8.3125 27.875 C8.32925781 28.90367187 8.34601563 29.93234375 8.36328125 30.9921875 C7.84466152 35.28613583 6.24050115 37.75949885 3.21484375 40.78515625 C0.23437547 42.41994573 -2.05186559 42.43358597 -5.4375 42.4375 C-6.54996094 42.45683594 -7.66242188 42.47617187 -8.80859375 42.49609375 C-12.6544025 41.89827525 -14.25305324 40.70798298 -17 38 C-21.45752396 30.16090615 -21.56676035 18.90483337 -19.2734375 10.26171875 C-15.44472957 1.99731261 -8.73615519 -1.50819617 0 0 Z " fill="#0C0C0C" transform="translate(417,438)"/>
<path d="M0 0 C3.21720726 2.41290544 5.22503688 4.52946599 7.5 7.875 C7.8125 10.75 7.8125 10.75 7.5 12.875 C4.6875 13.1875 4.6875 13.1875 1.5 12.875 C0.44228261 11.24435236 -0.55273046 9.57219127 -1.5 7.875 C-5.85986829 5.00145044 -9.31800645 4.13471521 -14.5 4.875 C-18.25051919 7.03777079 -20.96062987 9.81218751 -22.5 13.875 C-23.52841107 23.03456814 -23.52841107 23.03456814 -20.8125 31.5625 C-17.29886172 35.07613828 -15.05657625 36.6768903 -10.0625 37.3125 C-5.83996212 36.79394272 -3.7759755 35.54149168 -0.5 32.875 C1.85355339 29.75714887 1.85355339 29.75714887 2.5 24.875 C-1.79 24.875 -6.08 24.875 -10.5 24.875 C-10.5 22.895 -10.5 20.915 -10.5 18.875 C-4.23 18.875 2.04 18.875 8.5 18.875 C8.5 26.465 8.5 34.055 8.5 41.875 C7.18 41.875 5.86 41.875 4.5 41.875 C4.005 39.895 4.005 39.895 3.5 37.875 C2.571875 38.514375 1.64375 39.15375 0.6875 39.8125 C-4.65854676 43.27170673 -9.29272626 43.40843759 -15.5 42.875 C-21.81777184 40.6101384 -25.82471162 36.63162635 -28.8125 30.6875 C-31.60373945 23.8062403 -31.35104385 17.59397727 -28.9375 10.625 C-26.82389514 5.83164611 -23.92676743 2.65841989 -19.5 -0.125 C-13.37717837 -2.16594054 -6.11034767 -1.96404032 0 0 Z " fill="#0F0F0F" transform="translate(1557.5,542.125)"/>
<path d="M0 0 C2.64 0 5.28 0 8 0 C10.14498459 5.3350787 12.28096754 10.67363891 14.40869141 16.015625 C15.13376566 17.83236587 15.86128927 19.64813118 16.59130859 21.46289062 C17.64025134 24.07168973 18.68033311 26.68387134 19.71875 29.296875 C20.04685669 30.10743347 20.37496338 30.91799194 20.7130127 31.75311279 C21.01332397 32.51359924 21.31363525 33.27408569 21.62304688 34.05761719 C21.88952026 34.72380066 22.15599365 35.38998413 22.43054199 36.07635498 C23 38 23 38 23 42 C21.02 42 19.04 42 17 42 C14.525 36.06 14.525 36.06 12 30 C6.39 29.67 0.78 29.34 -5 29 C-5.474375 30.588125 -5.94875 32.17625 -6.4375 33.8125 C-7.25720605 36.55673329 -8.09422494 39.28267481 -9 42 C-10.98 42 -12.96 42 -15 42 C-14.36420859 36.80590743 -12.75893991 32.36108408 -10.83984375 27.5390625 C-10.53051407 26.74849457 -10.22118439 25.95792664 -9.90248108 25.1434021 C-8.9196015 22.63508858 -7.92868752 20.13004057 -6.9375 17.625 C-6.26704393 15.91817849 -5.59711633 14.21114929 -4.92773438 12.50390625 C-3.29126391 8.3335085 -1.64758357 4.16601915 0 0 Z " fill="#0A0A0A" transform="translate(141,918)"/>
<path d="M0 0 C14.92857143 0 14.92857143 0 19 3 C23.44415259 7.78182104 23.12173604 13.76102804 23 20 C22.2139106 24.0708201 20.52746218 26.49891093 17.5 29.375 C11.37942293 33.35337509 8.63898289 32 0 32 C0 21.44 0 10.88 0 0 Z " fill="#F7F7F7" transform="translate(933,357)"/>
<path d="M0 0 C6.32051182 5.99638301 6.32051182 5.99638301 6.6875 10.125 C6.605 10.846875 6.5225 11.56875 6.4375 12.3125 C4.4575 12.3125 2.4775 12.3125 0.4375 12.3125 C0.025 11.36375 -0.3875 10.415 -0.8125 9.4375 C-2.27699358 6.37303129 -2.27699358 6.37303129 -4.25 4.9375 C-9.50242682 3.51792518 -13.17909552 3.59517916 -17.9375 6.0625 C-21.5744574 9.17989206 -22.43291558 10.9774791 -22.8984375 15.7734375 C-22.91132812 17.06507813 -22.92421875 18.35671875 -22.9375 19.6875 C-22.96585938 20.97398437 -22.99421875 22.26046875 -23.0234375 23.5859375 C-22.37701869 28.81206925 -20.29083882 31.94802198 -16.1875 35.1875 C-12.96085874 36.57034626 -11.04563618 36.81009088 -7.5625 36.3125 C-2.04610485 33.60838473 -0.48690315 30.87188689 1.4375 25.3125 C3.4175 25.3125 5.3975 25.3125 7.4375 25.3125 C7.00236181 30.75172743 6.03846721 34.15753784 2.4375 38.3125 C-2.6036235 42.15278983 -7.70601803 42.94982753 -13.9453125 42.69921875 C-19.0446841 41.94572951 -22.163876 39.711124 -25.8125 36.0625 C-30.19079095 29.18232851 -31.76299427 22.46680071 -30.5625 14.3125 C-28.38261654 7.75421814 -25.28193761 3.16690361 -19.5625 -0.6875 C-13.30501171 -2.77332943 -5.95793597 -2.8221802 0 0 Z " fill="#0C0C0C" transform="translate(596.5625,636.6875)"/>
<path d="M0 0 C9.57 0 19.14 0 29 0 C29 1.65 29 3.3 29 5 C21.41 5 13.82 5 6 5 C6 9.29 6 13.58 6 18 C13.26 18 20.52 18 28 18 C28 19.65 28 21.3 28 23 C20.74 23 13.48 23 6 23 C6 27.62 6 32.24 6 37 C13.92 37 21.84 37 30 37 C30 38.65 30 40.3 30 42 C20.1 42 10.2 42 0 42 C0 28.14 0 14.28 0 0 Z " fill="#050505" transform="translate(781,908)"/>
<path d="M0 0 C1.65 0 3.3 0 5 0 C5 8.91 5 17.82 5 27 C6.65 27 8.3 27 10 27 C10 28.65 10 30.3 10 32 C8.35 32 6.7 32 5 32 C5 35.3 5 38.6 5 42 C3.35 42 1.7 42 0 42 C0 38.7 0 35.4 0 32 C-5.94 32 -11.88 32 -18 32 C-18 24.12584446 -18 24.12584446 -15.33203125 20.625 C-14.76806641 19.86703125 -14.20410156 19.1090625 -13.62304688 18.328125 C-13.02556641 17.55984375 -12.42808594 16.7915625 -11.8125 16 C-11.23435547 15.23171875 -10.65621094 14.4634375 -10.06054688 13.671875 C-8.92106434 12.15771515 -7.77166438 10.65096084 -6.61181641 9.15234375 C-5.09943305 7.13277821 -3.74990399 5.05884032 -2.38671875 2.9375 C-1.59910156 1.968125 -0.81148437 0.99875 0 0 Z " fill="#101010" transform="translate(132,595)"/>
<path d="M0 0 C7.26 0 14.52 0 22 0 C22 1.65 22 3.3 22 5 C16.39 5 10.78 5 5 5 C4.34 8.3 3.68 11.6 3 15 C3.639375 14.649375 4.27875 14.29875 4.9375 13.9375 C9.16984789 12.6418833 12.72671703 12.92198488 17 14 C20.58289306 16.21072125 22.39766931 18.1558119 24 22 C24.78671167 27.61936904 24.22202478 32.22251498 21 37 C17.23016233 40.63662786 14.78446547 41.56865072 9.5625 41.5625 C2.49568091 41.32240422 2.49568091 41.32240422 -0.75 38.9375 C-3.36598105 35.52219141 -3.83306975 33.25672126 -4 29 C-1.75 28.625 -1.75 28.625 1 29 C1.5775 29.99 2.155 30.98 2.75 32 C4.61498074 35.14246862 4.61498074 35.14246862 7.14453125 35.5390625 C10.74574092 35.6670538 13.1433026 35.64901318 16.0625 33.4375 C17.6509281 29.30758694 17.72387673 25.71920723 16 21.625 C12.97320371 19.16572801 9.85389865 18.76500618 6 19 C3.80961577 20.37168238 3.80961577 20.37168238 2 22 C-0.61328125 22.09765625 -0.61328125 22.09765625 -3 22 C-2.37679691 14.58716322 -1.27818376 7.32825353 0 0 Z " fill="#0E0E0E" transform="translate(1182,788)"/>
<path d="M0 0 C7.26 0 14.52 0 22 0 C22 1.65 22 3.3 22 5 C16.39 5 10.78 5 5 5 C4.34 8.3 3.68 11.6 3 15 C3.639375 14.649375 4.27875 14.29875 4.9375 13.9375 C9.16984789 12.6418833 12.72671703 12.92198488 17 14 C20.58289306 16.21072125 22.39766931 18.1558119 24 22 C24.78671167 27.61936904 24.22202478 32.22251498 21 37 C17.23016233 40.63662786 14.78446547 41.56865072 9.5625 41.5625 C2.49568091 41.32240422 2.49568091 41.32240422 -0.75 38.9375 C-3.36598105 35.52219141 -3.83306975 33.25672126 -4 29 C-1.75 28.625 -1.75 28.625 1 29 C1.5775 29.99 2.155 30.98 2.75 32 C4.61498074 35.14246862 4.61498074 35.14246862 7.14453125 35.5390625 C10.74574092 35.6670538 13.1433026 35.64901318 16.0625 33.4375 C17.6509281 29.30758694 17.72387673 25.71920723 16 21.625 C12.97320371 19.16572801 9.85389865 18.76500618 6 19 C3.80961577 20.37168238 3.80961577 20.37168238 2 22 C-0.61328125 22.09765625 -0.61328125 22.09765625 -3 22 C-2.37679691 14.58716322 -1.27818376 7.32825353 0 0 Z " fill="#0E0E0E" transform="translate(554,300)"/>
<path d="M0 0 C3.12153542 1.4504661 5.14689403 3.08967332 7 6 C8.07709765 10.51430631 7.52590231 13.92628279 5.5 18.0625 C4.7575 19.0215625 4.7575 19.0215625 4 20 C5.2375 20.99 5.2375 20.99 6.5 22 C9.14655806 25.17586967 9.69845813 26.82397452 9.42578125 30.9375 C8.5820494 35.02456805 6.81757813 38.7814891 3.2578125 41.16796875 C-1.60793255 42.96105473 -6.91931295 42.63666178 -12 42 C-15.28558166 40.39305188 -17.34342016 38.31315967 -19 35 C-19.039992 33.00039988 -19.04346799 30.99952758 -19 29 C-17.35 29 -15.7 29 -14 29 C-13.525625 29.969375 -13.05125 30.93875 -12.5625 31.9375 C-11.29806053 34.80477437 -11.29806053 34.80477437 -10 36 C-8.14712498 36.07226502 -6.29166122 36.0838122 -4.4375 36.0625 C-3.42558594 36.05347656 -2.41367187 36.04445313 -1.37109375 36.03515625 C-0.58863281 36.02355469 0.19382812 36.01195312 1 36 C1.19573608 34.56359829 1.38127816 33.12580496 1.5625 31.6875 C1.66691406 30.88699219 1.77132813 30.08648438 1.87890625 29.26171875 C2.14755178 26.83182884 2.14755178 26.83182884 1 24 C-2.3 23.67 -5.6 23.34 -9 23 C-9 21.35 -9 19.7 -9 18 C-6.03 17.34 -3.06 16.68 0 16 C0.0928125 14.081875 0.0928125 14.081875 0.1875 12.125 C0.22230469 11.40570312 0.25710938 10.68640625 0.29296875 9.9453125 C0.19628906 9.30335938 0.09960938 8.66140625 0 8 C-3.47042703 5.68638198 -4.91834173 5.48979272 -9 6 C-11.47206611 8.38682245 -12.40142752 10.6479941 -13 14 C-14.98 14 -16.96 14 -19 14 C-18.74730935 9.70425887 -18.4431794 7.52481771 -15.625 4.1875 C-10.37011211 -0.19157324 -6.72279362 -1.12723579 0 0 Z " fill="#0C0C0C" transform="translate(351,724)"/>
<path d="M0 0 C3.12153542 1.4504661 5.14689403 3.08967332 7 6 C8.07709765 10.51430631 7.52590231 13.92628279 5.5 18.0625 C4.7575 19.0215625 4.7575 19.0215625 4 20 C5.2375 20.99 5.2375 20.99 6.5 22 C9.14655806 25.17586967 9.69845813 26.82397452 9.42578125 30.9375 C8.5820494 35.02456805 6.81757813 38.7814891 3.2578125 41.16796875 C-1.60793255 42.96105473 -6.91931295 42.63666178 -12 42 C-15.28558166 40.39305188 -17.34342016 38.31315967 -19 35 C-19.039992 33.00039988 -19.04346799 30.99952758 -19 29 C-17.35 29 -15.7 29 -14 29 C-13.525625 29.969375 -13.05125 30.93875 -12.5625 31.9375 C-11.29806053 34.80477437 -11.29806053 34.80477437 -10 36 C-8.14712498 36.07226502 -6.29166122 36.0838122 -4.4375 36.0625 C-3.42558594 36.05347656 -2.41367188 36.04445313 -1.37109375 36.03515625 C-0.58863281 36.02355469 0.19382812 36.01195312 1 36 C1.19573608 34.56359829 1.38127816 33.12580496 1.5625 31.6875 C1.66691406 30.88699219 1.77132813 30.08648437 1.87890625 29.26171875 C2.14755178 26.83182884 2.14755178 26.83182884 1 24 C-2.3 23.67 -5.6 23.34 -9 23 C-9 21.35 -9 19.7 -9 18 C-6.03 17.34 -3.06 16.68 0 16 C0.0928125 14.081875 0.0928125 14.081875 0.1875 12.125 C0.22230469 11.40570313 0.25710938 10.68640625 0.29296875 9.9453125 C0.19628906 9.30335938 0.09960938 8.66140625 0 8 C-3.47042703 5.68638198 -4.91834173 5.48979272 -9 6 C-11.47206611 8.38682245 -12.40142752 10.6479941 -13 14 C-14.98 14 -16.96 14 -19 14 C-18.74730935 9.70425887 -18.4431794 7.52481771 -15.625 4.1875 C-10.37011211 -0.19157324 -6.72279362 -1.12723579 0 0 Z " fill="#0C0C0C" transform="translate(1480,320)"/>
<path d="M0 0 C4.79215116 2.63098495 4.79215116 2.63098495 6.1875 5.75 C7.04614204 11.2775081 6.45941787 15.15016672 3.50463867 20.03051758 C1.21098788 23.02480535 -1.73324387 24.91150773 -4.875 26.9375 C-8.90482884 29.59494131 -11.8496123 31.79948306 -14.8125 35.75 C-7.8825 35.75 -0.9525 35.75 6.1875 35.75 C6.1875 37.4 6.1875 39.05 6.1875 40.75 C-3.0525 40.75 -12.2925 40.75 -21.8125 40.75 C-20.87489637 34.18677462 -20.27177076 30.67197977 -15.20605469 26.39306641 C-13.39917642 25.05951277 -11.56099131 23.80054941 -9.6875 22.5625 C-4.68897963 19.27128566 -4.68897963 19.27128566 -0.8125 14.75 C-0.34844623 10.08492572 -0.34844623 10.08492572 -1.9375 5.8125 C-4.64441295 4.27858266 -6.75324001 4.49506167 -9.8125 4.75 C-10.8025 5.08 -11.7925 5.41 -12.8125 5.75 C-13.61462628 7.62387216 -13.61462628 7.62387216 -14 9.8125 C-14.15855469 10.54597656 -14.31710937 11.27945313 -14.48046875 12.03515625 C-14.59003906 12.60105469 -14.69960938 13.16695312 -14.8125 13.75 C-16.7925 13.75 -18.7725 13.75 -20.8125 13.75 C-20.4298991 8.10663672 -20.03396091 4.85084774 -15.8125 0.75 C-11.25722646 -2.66645516 -5.05416314 -1.95955902 0 0 Z " fill="#0B0B0B" transform="translate(920.8125,637.25)"/>
<path d="M0 0 C4.79215116 2.63098495 4.79215116 2.63098495 6.1875 5.75 C7.04614204 11.2775081 6.45941787 15.15016672 3.50463867 20.03051758 C1.21098788 23.02480535 -1.73324387 24.91150773 -4.875 26.9375 C-8.90482884 29.59494131 -11.8496123 31.79948306 -14.8125 35.75 C-7.8825 35.75 -0.9525 35.75 6.1875 35.75 C6.1875 37.4 6.1875 39.05 6.1875 40.75 C-3.0525 40.75 -12.2925 40.75 -21.8125 40.75 C-20.87489637 34.18677462 -20.27177076 30.67197977 -15.20605469 26.39306641 C-13.39917642 25.05951277 -11.56099131 23.80054941 -9.6875 22.5625 C-4.68897963 19.27128566 -4.68897963 19.27128566 -0.8125 14.75 C-0.34844623 10.08492572 -0.34844623 10.08492572 -1.9375 5.8125 C-4.64441295 4.27858266 -6.75324001 4.49506167 -9.8125 4.75 C-10.8025 5.08 -11.7925 5.41 -12.8125 5.75 C-13.61462628 7.62387216 -13.61462628 7.62387216 -14 9.8125 C-14.15855469 10.54597656 -14.31710937 11.27945313 -14.48046875 12.03515625 C-14.59003906 12.60105469 -14.69960937 13.16695312 -14.8125 13.75 C-16.7925 13.75 -18.7725 13.75 -20.8125 13.75 C-20.4298991 8.10663672 -20.03396091 4.85084774 -15.8125 0.75 C-11.25722646 -2.66645516 -5.05416314 -1.95955902 0 0 Z " fill="#0B0B0B" transform="translate(1134.8125,213.25)"/>
<path d="M0 0 C9.24 0 18.48 0 28 0 C28 1.65 28 3.3 28 5 C20.74 5 13.48 5 6 5 C6 9.29 6 13.58 6 18 C12.6 18 19.2 18 26 18 C26 19.65 26 21.3 26 23 C19.4 23 12.8 23 6 23 C6 29.27 6 35.54 6 42 C4.02 42 2.04 42 0 42 C0 28.14 0 14.28 0 0 Z " fill="#070707" transform="translate(1369,145)"/>
<path d="M0 0 C3.5 0.875 3.5 0.875 5.375 2.75 C7.63203035 7.01327954 7.71562489 10.91560989 7.75 15.625 C7.770625 16.3159375 7.79125 17.006875 7.8125 17.71875 C7.85084525 22.81866799 6.88945377 26.35127683 4.5 30.875 C1.37139505 32.43930248 -1.05602925 32.23127284 -4.5 31.875 C-7.0804868 29.69256701 -8.34029334 27.93717248 -8.84814453 24.55957031 C-8.96669234 21.79961301 -8.94682389 19.07393952 -8.875 16.3125 C-8.87371094 15.36697266 -8.87242188 14.42144531 -8.87109375 13.44726562 C-8.76902923 5.4238605 -8.76902923 5.4238605 -6.5 1.875 C-3.5 -0.125 -3.5 -0.125 0 0 Z " fill="#F8F8F8" transform="translate(1246.5,422.125)"/>
<path d="M0 0 C8.91 0 17.82 0 27 0 C27 5.56675063 27 5.56675063 24.3125 8.6875 C16.89709015 18.03964042 13.15338476 29.35018844 11 41 C9.02 41 7.04 41 5 41 C6.58241692 27.71602642 10.02613042 18.7038397 18 8 C18.66 7.01 19.32 6.02 20 5 C13.4 5 6.8 5 0 5 C0 3.35 0 1.7 0 0 Z " fill="#050505" transform="translate(458,970)"/>
<path d="M0 0 C1.65 0 3.3 0 5 0 C5 13.86 5 27.72 5 42 C3.02 42 1.04 42 -1 42 C-1 32.1 -1 22.2 -1 12 C-4.63 12 -8.26 12 -12 12 C-12 10.68 -12 9.36 -12 8 C-11.07767578 7.76216797 -11.07767578 7.76216797 -10.13671875 7.51953125 C-4.85107169 6.15178377 -4.85107169 6.15178377 -1.25 2.3125 C-0.8375 1.549375 -0.425 0.78625 0 0 Z " fill="#121212" transform="translate(712,466)"/>
<path d="M0 0 C2.75059381 -0.08107646 5.49879021 -0.14052813 8.25 -0.1875 C9.02730469 -0.21263672 9.80460938 -0.23777344 10.60546875 -0.26367188 C14.07793528 -0.30819068 16.38935846 -0.31480278 19.515625 1.296875 C21 3 21 3 21.5 6.4375 C21 10 21 10 19.515625 12.20703125 C15.82925808 14.83442631 12.65526089 14.43994491 8.25 14.25 C7.06083984 14.22292969 7.06083984 14.22292969 5.84765625 14.1953125 C3.89791652 14.14833082 1.94880122 14.07659044 0 14 C0 9.38 0 4.76 0 0 Z " fill="#F2F2F2" transform="translate(222,343)"/>
<path d="M0 0 C1.65 0 3.3 0 5 0 C5 13.86 5 27.72 5 42 C3.35 42 1.7 42 0 42 C0 32.1 0 22.2 0 12 C-3.63 12 -7.26 12 -11 12 C-11 10.68 -11 9.36 -11 8 C-9.741875 7.608125 -8.48375 7.21625 -7.1875 6.8125 C-3.14263116 5.33647769 -2.12066936 3.73641744 0 0 Z " fill="#030303" transform="translate(679,466)"/>
<path d="M0 0 C1.65 0 3.3 0 5 0 C5 13.86 5 27.72 5 42 C3.35 42 1.7 42 0 42 C0 32.1 0 22.2 0 12 C-3.63 12 -7.26 12 -11 12 C-11 10.68 -11 9.36 -11 8 C-9.741875 7.608125 -8.48375 7.21625 -7.1875 6.8125 C-3.14263116 5.33647769 -2.12066936 3.73641744 0 0 Z " fill="#030303" transform="translate(1213,417)"/>
<path d="M0 0 C2.43757413 -0.02698422 4.87484915 -0.04683099 7.3125 -0.0625 C8.00279297 -0.07087891 8.69308594 -0.07925781 9.40429688 -0.08789062 C12.5483025 -0.10307906 14.99420019 -0.00193327 18 1 C20.1610211 4.24153166 20.64247553 5.23692901 20 9 C17.07852315 12.07258772 15.493074 12.94890425 11.23046875 13.390625 C9.88225415 13.36431837 8.53430482 13.31701804 7.1875 13.25 C6.49462891 13.23195313 5.80175781 13.21390625 5.08789062 13.1953125 C3.39132336 13.14851064 1.69547524 13.07677624 0 13 C0 8.71 0 4.42 0 0 Z " fill="#EEEEEE" transform="translate(222,325)"/>
<path d="M0 0 C2.4375 1.4375 2.4375 1.4375 4 4 C4.66293686 8.10568853 4.51499025 11.68033748 3 15.5625 C0.38744667 17.44027271 -1.88787271 17.5637895 -5.05859375 17.37109375 C-7 17 -7 17 -9.5 15.5625 C-11.73340143 11.74710589 -11.76726228 8.31090664 -11 4 C-8.21093968 -0.57405892 -5.10245628 -0.72892233 0 0 Z " fill="#F9F9F9" transform="translate(415,458)"/>
<path d="M0 0 C2.5 1.5625 2.5 1.5625 4 4 C4.5 7.5625 4.5 7.5625 4 11 C2.23061796 13.28545181 0.92086098 13.84903918 -1.90625 14.3125 C-5.48826847 14.52635185 -7.44432352 14.36118971 -10.5 12.375 C-12.45562482 9.27859404 -12.60024477 7.60146865 -12 4 C-9.04487268 -0.67895159 -5.10946802 -1.01561147 0 0 Z " fill="#F9F9F9" transform="translate(729,762)"/>
<path d="M0 0 C2.375 1.125 2.375 1.125 4 3 C4.45947423 6.1506804 4.52225401 8.07837528 2.9375 10.875 C-0.1069286 12.64273274 -2.5631012 12.36823916 -6 12 C-7.9375 10.875 -7.9375 10.875 -9 9 C-9.39365568 5.85075452 -9.52854531 3.88090884 -7.875 1.125 C-5.10703881 -0.53577671 -3.16909182 -0.38805206 0 0 Z " fill="#F2F2F2" transform="translate(728,744)"/>
<path d="M0 0 C2.91019311 2.46824401 3.93540196 4.93080098 5.1875 8.5 C5.53167969 9.4590625 5.87585938 10.418125 6.23046875 11.40625 C7 14 7 14 7 17 C3.04 17 -0.92 17 -5 17 C-4.35083537 10.99522721 -2.14204997 5.599219 0 0 Z " fill="#F0F0F0" transform="translate(144,925)"/>
<path d="M0 0 C0.33 0 0.66 0 1 0 C1 5.61 1 11.22 1 17 C-2.96 17 -6.92 17 -11 17 C-8.67425568 13.3284598 -6.34082964 9.66194165 -4 6 C-3.56429687 5.31808594 -3.12859375 4.63617187 -2.6796875 3.93359375 C-1.81448045 2.60373847 -0.91217209 1.29809106 0 0 Z " fill="#FAFAFA" transform="translate(130,605)"/>
</svg>
